<svg xmlns="http://www.w3.org/2000/svg" viewBox="0 0 200 140" fill="#102670">
  <!-- Solid buffalo silhouette facing left, head lowered -->
  <path d="
    M 160 55
    C 158 48 152 42 148 38
    C 145 35 140 32 136 30
    C 132 28 128 28 125 30
    C 122 32 118 36 115 40
    C 112 44 108 48 104 52
    C 100 56 95 60 90 63
    C 85 66 80 68 75 70
    C 70 72 64 73 58 73
    C 52 73 46 72 42 70
    C 38 68 35 65 32 62
    C 29 59 27 55 25 52
    C 23 49 20 47 18 46
    C 16 45 14 45 12 46
    C 10 47 9 49 8 52
    C 7 55 7 58 8 61
    C 9 64 11 67 14 69
    C 17 71 20 73 24 75
    C 28 77 32 78 36 80
    C 40 82 44 84 48 86
    C 50 87 51 88 52 90
    C 53 92 53 95 52 98
    C 51 101 50 104 50 107
    C 50 110 50 113 51 115
    C 52 117 54 118 56 118
    C 58 118 60 117 62 115
    C 64 113 65 110 66 107
    C 67 104 68 100 70 97
    C 72 94 74 92 77 90
    C 80 88 84 87 88 87
    C 92 87 96 88 100 90
    C 104 92 107 94 110 97
    C 112 99 113 102 114 105
    C 115 108 115 111 114 114
    C 113 117 113 118 114 119
    C 115 120 117 120 119 119
    C 121 118 122 116 123 113
    C 124 110 124 106 124 102
    C 124 98 123 94 122 90
    C 121 86 122 83 124 80
    C 126 77 130 75 134 73
    C 138 71 142 70 146 68
    C 150 66 154 63 157 60
    C 160 57 161 56 160 55
    Z

    M 148 38
    C 150 34 153 30 156 28
    C 158 26 160 25 162 24
    C 164 23 165 24 164 26
    C 163 28 160 31 157 34
    C 154 37 151 38 148 38
    Z

    M 136 30
    C 134 26 133 22 132 20
    C 131 18 130 16 130 15
    C 130 14 131 13 132 14
    C 133 15 135 18 137 22
    C 139 26 138 29 136 30
    Z

    M 160 55
    C 162 52 166 48 170 46
    C 174 44 178 44 180 45
    C 182 46 183 48 182 50
    C 181 52 178 54 174 56
    C 170 58 166 58 162 57
    C 161 56 160 56 160 55
    Z
  "/>
</svg>
